<?xml version="1.0" standalone="no"?>
<!DOCTYPE svg PUBLIC "-//W3C//DTD SVG 20010904//EN"
 "http://www.w3.org/TR/2001/REC-SVG-20010904/DTD/svg10.dtd">
<svg version="1.0" xmlns="http://www.w3.org/2000/svg"
 width="147.000000pt" height="112.000000pt" viewBox="0 0 147.000000 112.000000"
 preserveAspectRatio="xMidYMid meet">

<g transform="translate(0.000000,112.000000) scale(0.100000,-0.100000)"
fill="#000000" stroke="none">
<path d="M510 866 c-78 -62 -123 -164 -86 -195 10 -9 16 -8 26 4 16 19 117 65
144 65 12 0 26 4 32 9 5 5 35 11 68 15 l58 6 -6 -27 c-4 -16 -11 -133 -16
-261 -5 -141 -13 -239 -20 -247 -6 -8 -10 -41 -8 -77 2 -50 6 -63 21 -66 15
-3 17 5 17 60 0 35 5 69 11 75 6 6 12 85 15 199 3 104 10 224 16 267 l10 77
33 0 c18 0 38 -7 45 -15 6 -8 22 -17 33 -21 44 -13 110 -46 150 -75 57 -41 77
-39 77 9 0 20 -3 61 -7 91 -6 51 -8 54 -48 72 -23 10 -89 30 -146 44 -85 20
-129 25 -240 25 l-136 0 -43 -34z m264 -15 c17 -7 26 -7 28 1 4 12 254 -43
268 -59 4 -4 11 -33 14 -63 l7 -55 -23 22 c-13 11 -52 33 -88 48 -35 15 -75
36 -89 46 -26 21 -71 26 -71 8 0 -9 -27 -10 -99 -5 -65 4 -102 3 -106 -4 -3
-5 -17 -10 -31 -10 -14 0 -42 -9 -64 -20 -47 -24 -50 -24 -50 -6 0 8 21 35 47
60 l46 46 93 0 c51 0 104 -4 118 -9z"/>
</g>
</svg>
